<mxfile host="Electron" modified="2024-01-12T07:37:45.532Z" agent="Mozilla/5.0 (Windows NT 10.0; Win64; x64) AppleWebKit/537.36 (KHTML, like Gecko) draw.io/22.1.16 Chrome/120.0.6099.109 Electron/28.1.0 Safari/537.36" etag="BLB_10G8p1aNeN0iKkZA" version="22.1.16" type="device">
  <diagram name="Page-1" id="M8xeHj-jTjxb3h2-juEe">
    <mxGraphModel dx="864" dy="516" grid="1" gridSize="10" guides="1" tooltips="1" connect="1" arrows="1" fold="1" page="1" pageScale="1" pageWidth="850" pageHeight="1100" math="0" shadow="0">
      <root>
        <mxCell id="0" />
        <mxCell id="1" parent="0" />
        <mxCell id="hl20N4xaHZgLKk7n9Kkz-1" value="" style="image;aspect=fixed;html=1;points=[];align=center;fontSize=12;image=img/lib/azure2/identity/Users.svg;" vertex="1" parent="1">
          <mxGeometry x="40" y="220" width="54.86" height="60" as="geometry" />
        </mxCell>
        <mxCell id="hl20N4xaHZgLKk7n9Kkz-2" value="" style="image;aspect=fixed;html=1;points=[];align=center;fontSize=12;image=img/lib/azure2/identity/Users.svg;" vertex="1" parent="1">
          <mxGeometry x="140" y="220" width="54.86" height="60" as="geometry" />
        </mxCell>
        <mxCell id="hl20N4xaHZgLKk7n9Kkz-10" value="" style="image;aspect=fixed;html=1;points=[];align=center;fontSize=12;image=img/lib/azure2/identity/Users.svg;" vertex="1" parent="1">
          <mxGeometry x="230" y="220" width="54.86" height="60" as="geometry" />
        </mxCell>
        <mxCell id="hl20N4xaHZgLKk7n9Kkz-11" value="" style="image;aspect=fixed;html=1;points=[];align=center;fontSize=12;image=img/lib/azure2/identity/Users.svg;" vertex="1" parent="1">
          <mxGeometry x="440" y="220" width="54.86" height="60" as="geometry" />
        </mxCell>
        <mxCell id="hl20N4xaHZgLKk7n9Kkz-13" value="" style="image;aspect=fixed;html=1;points=[];align=center;fontSize=12;image=img/lib/azure2/identity/Users.svg;" vertex="1" parent="1">
          <mxGeometry x="520" y="220" width="54.86" height="60" as="geometry" />
        </mxCell>
        <mxCell id="hl20N4xaHZgLKk7n9Kkz-20" value="Edward" style="text;whiteSpace=wrap;html=1;fontStyle=1;labelBorderColor=default;fontSize=17;" vertex="1" parent="1">
          <mxGeometry x="520" y="170" width="60" height="40" as="geometry" />
        </mxCell>
        <mxCell id="hl20N4xaHZgLKk7n9Kkz-21" value="David" style="text;whiteSpace=wrap;html=1;fontStyle=1;labelBorderColor=default;fontSize=17;" vertex="1" parent="1">
          <mxGeometry x="425" y="170" width="60" height="40" as="geometry" />
        </mxCell>
        <mxCell id="hl20N4xaHZgLKk7n9Kkz-22" value="Charles" style="text;whiteSpace=wrap;html=1;fontStyle=1;labelBorderColor=default;fontSize=17;" vertex="1" parent="1">
          <mxGeometry x="230" y="170" width="80" height="40" as="geometry" />
        </mxCell>
        <mxCell id="hl20N4xaHZgLKk7n9Kkz-23" value="Bob" style="text;whiteSpace=wrap;html=1;fontStyle=1;labelBorderColor=default;fontSize=17;" vertex="1" parent="1">
          <mxGeometry x="134.86" y="170" width="55.14" height="40" as="geometry" />
        </mxCell>
        <mxCell id="hl20N4xaHZgLKk7n9Kkz-24" value="Alice" style="text;whiteSpace=wrap;html=1;fontStyle=1;labelBorderColor=default;fontSize=17;" vertex="1" parent="1">
          <mxGeometry x="34.86" y="170" width="55.14" height="40" as="geometry" />
        </mxCell>
        <mxCell id="hl20N4xaHZgLKk7n9Kkz-25" value="" style="rounded=1;arcSize=10;dashed=1;fillColor=none;gradientColor=none;dashPattern=8 3 1 3;strokeWidth=2;" vertex="1" parent="1">
          <mxGeometry x="20" y="140" width="300" height="199.5" as="geometry" />
        </mxCell>
        <mxCell id="hl20N4xaHZgLKk7n9Kkz-26" value="Developers Group" style="text;html=1;strokeColor=none;fillColor=none;align=center;verticalAlign=middle;whiteSpace=wrap;rounded=0;fontStyle=1;fontSize=16;labelBackgroundColor=default;" vertex="1" parent="1">
          <mxGeometry x="10" y="90" width="90" height="30" as="geometry" />
        </mxCell>
        <mxCell id="hl20N4xaHZgLKk7n9Kkz-27" value="" style="rounded=1;arcSize=10;dashed=1;fillColor=none;gradientColor=none;dashPattern=8 3 1 3;strokeWidth=2;" vertex="1" parent="1">
          <mxGeometry x="410" y="140" width="199.5" height="199.5" as="geometry" />
        </mxCell>
        <mxCell id="hl20N4xaHZgLKk7n9Kkz-29" value="Operations group" style="text;html=1;strokeColor=none;fillColor=none;align=center;verticalAlign=middle;whiteSpace=wrap;rounded=0;fontStyle=1;fontSize=16;labelBackgroundColor=default;" vertex="1" parent="1">
          <mxGeometry x="560" y="90" width="90" height="30" as="geometry" />
        </mxCell>
        <mxCell id="hl20N4xaHZgLKk7n9Kkz-30" value="Audit-Team group" style="text;html=1;strokeColor=none;fillColor=none;align=center;verticalAlign=middle;whiteSpace=wrap;rounded=0;fontStyle=1;fontSize=16;labelBackgroundColor=default;" vertex="1" parent="1">
          <mxGeometry x="310" y="70" width="90" height="30" as="geometry" />
        </mxCell>
        <mxCell id="hl20N4xaHZgLKk7n9Kkz-31" value="" style="rounded=1;arcSize=10;dashed=1;fillColor=none;gradientColor=none;dashPattern=8 3 1 3;strokeWidth=2;" vertex="1" parent="1">
          <mxGeometry x="210" y="120" width="300" height="240" as="geometry" />
        </mxCell>
      </root>
    </mxGraphModel>
  </diagram>
</mxfile>
